<svg xmlns="http://www.w3.org/2000/svg" viewBox="0 0 21 21"><defs><style>.cls-1{fill:#310e04;}.cls-2{fill:#cab488;}.cls-3{fill:none;stroke:#cab488;stroke-miterlimit:10;}</style></defs><g id="Layer_2" data-name="Layer 2"><g id="Layer_1-2" data-name="Layer 1"><circle class="cls-1" cx="10.5" cy="10.5" r="10"/><path class="cls-2" d="M10.5,1A9.5,9.5,0,1,1,1,10.5,9.51,9.51,0,0,1,10.5,1m0-1A10.5,10.5,0,1,0,21,10.5,10.5,10.5,0,0,0,10.5,0Z"/><line class="cls-3" x1="10.5" y1="18" x2="10.5" y2="7.46"/><path class="cls-2" d="M5.44,8.26A15.53,15.53,0,0,0,10.5,3a16.1,16.1,0,0,0,5.06,5.26V9.51A17.54,17.54,0,0,1,10.5,4.68,17.85,17.85,0,0,1,5.44,9.53Z"/><path class="cls-2" d="M5.44,11.27A15.53,15.53,0,0,0,10.5,6a16.1,16.1,0,0,0,5.06,5.26v1.25A17.54,17.54,0,0,1,10.5,7.69a17.85,17.85,0,0,1-5.06,4.85Z"/></g></g></svg>