<svg xmlns="http://www.w3.org/2000/svg" viewBox="0 0 12.13 16.79"><defs><style>.cls-1,.cls-2,.cls-3{fill:#310e04;}.cls-2{stroke:#d82e07;stroke-miterlimit:10;}.cls-3{stroke:#fff;stroke-linecap:round;stroke-linejoin:round;}</style></defs><g id="Layer_2" data-name="Layer 2"><g id="Layer_1-2" data-name="Layer 1"><path class="cls-1" d="M12.13,10.88a6,6,0,0,1-.67,2.62,6.26,6.26,0,0,1-2.09,2.31,6.39,6.39,0,0,1-3.39,1A6.64,6.64,0,0,1,2.91,16C.07,14.66-.17,11.35.07,9.93A17.62,17.62,0,0,1,6,0s5.44,4.73,6.11,10.25A5.54,5.54,0,0,1,12.13,10.88Z"/><line class="cls-2" x1="12.13" y1="6.38" x2="12.13" y2="6.38"/><path class="cls-3" d="M2,8.39a7,7,0,0,0,0,4.24,5,5,0,0,0,3.3,2.64l.22.1"/></g></g></svg>