<svg xmlns="http://www.w3.org/2000/svg" viewBox="0 0 623.86 223.01"><defs><style>.cls-1{stroke:#000;}.cls-1,.cls-2{stroke-miterlimit:10;}.cls-2{fill:#fff;stroke:#fff;}.cls-3{fill:#cab488;}</style></defs><g id="Layer_2" data-name="Layer 2"><g id="Layer_1-2" data-name="Layer 1"><path class="cls-1" d="M79.69,56.07V38.32s-3.22-4.84-4.84-8.06S71.63,25.42,70,19,70,7.67,73.24,4.44s3.23-3.22,6.45-3.22,5.54-1.62,12.45,0,15,8.06,21.43,8.06,8.07,0,8.07,1.62,0,3.22-4.84,3.22-6.45,0-9.68,1.62-3.23,0,0,3.22,8.07,6.46,8.07,8.07,0,1.61-6.46,0-6.45-1.61-9.68-3.23S92.6,20.58,91,25.42s0,6.45,0,12.9,1.61,29,3.22,32.27S103.89,86.73,108.73,90s12.91,11.3,22.59,17.75,11.29,4.84,16.13,8.07,6.46,9.68,4.84,11.29-9.68,3.23-12.9,1.61-9.68-8.06-9.68-8.06-3.23-3.23-3.23-1.62a81.19,81.19,0,0,0,3.23,14.52c1.61,4.84,4.84,12.91,1.61,24.2s-8.07,27.43-8.07,29-4.84,17.75-4.84,22.59-3.22,11.29-4.84,11.29-19.36,1.62-19.36,1.62S92.6,223.86,91,219s1.61-6.45,3.22-8.07,9.68-1.61,11.3-4.84a17.54,17.54,0,0,0,1.61-8.06,10.9,10.9,0,0,0-4.84-9.68c-4.84-3.23-40.33-14.52-41.95-16.14A12.33,12.33,0,0,0,52.27,169c-3.23,0-6.46,3.22-8.07,3.22s-8.07,0-12.91,1.62-8.07,4.84-11.29,1.61-1.62-4.84-4.84-6.45-6.46,0-4.84-3.23,8.06-6.45,9.68-6.45,9.68-3.23,11.29-3.23,6.45,0,8.07-3.23,0-8.06,0-16.13S44.2,120.61,45.81,119s4.24-6.48,2.93-8.08-2.93-6.44-9.38-6.44-8.07-1.61-17.75-1.61S-1,102.86.64,98,8.7,90,10.32,88.34,21.61,83.5,24.84,83.5s17.08,1.61,19.36,1.61h9.68c3.61,0,8.07,1.62,14.52-3.22s9.68-9.69,9.68-11.3,1.61-14.52,1.61-14.52Z"/><path class="cls-2" d="M76.47,7.67s-3.23,1.61-3.23,4.84,1.61,6.45,3.23,9.68,4.84,1.61,4.84,1.61c3.22-1.61,4.84-1.61,8.06-3.22s11.3-4.84,11.3-6.46-1.62-3.22-3.23-4.84S92.6,4.44,91,4.44H86.15a5.65,5.65,0,0,0-1.62,3.23c0,1.61,3.23,3.23,3.23,3.23s1.61,3.22,0,4.84-3.23,1.61-4.84,1.61a3.47,3.47,0,0,1-3.23-3.23c0-1.61,1.62-3.22,1.62-4.84S76.47,7.67,76.47,7.67Z"/><path class="cls-2" d="M10.32,92.45s3.22-4.21,8.06-4.21,12.91-1.4,17.75,0,16.14,2.81,21,5.61,3.22,4.21,3.22,5.61,0,4.21-3.22,4.21a27.13,27.13,0,0,1-9.68-1.41c-4.84-1.4-6.46-4.2-11.3-4.2s-12.91,1.4-17.75,1.4-6.61-.84-8.06-1.42c-1.63-.64-1.62-4.19,0-5.59Z"/><path class="cls-2" d="M94.51,87.62s-6.75.72-11.59,3.95-11.29,14.52-16.13,21-11.3,17.75-14.52,21-9.68,11.3-9.68,16.14,4.84,11.29,9.68,14.52A58.14,58.14,0,0,0,68.55,172c6.3,1.85,24,1.85,28.89,1.85s9.68-1.62,17.75-6.46,8.06-3.22,11.29-9.68,4.84-12.9,3.23-19.36-12.91-27.42-14.52-30.65-8.07-12.91-11.3-16.13S94.51,87.62,94.51,87.62Z"/><path class="cls-3" d="M367.89,40.09c-.84,4.13-3.44,9.62-8.55,8l-.08,38.35a5.21,5.21,0,0,0,1.63-.85l.47.54c-1.31.76-6.22,4.07-7.27,5-4.94,2-7.12-7.51-7.12-11.28V49.89c-1-5.7-8.49-3.91-10.89.08l-.39-.23c1.34-3.38,1.24-10.44,5.91-11.2,7-1.77,20.48,2.91,26.92-1C368.36,38,368.15,38.9,367.89,40.09ZM357.94,48a21.74,21.74,0,0,0-2.34-.16V83.42c-.23,1.7,1.12,1.8,2.41,2.57Z"/><path class="cls-3" d="M397.3,92.21c-5.56-4.3-3.32-18.61-3.74-24.58h-2.48V82.72c3.28,4.37,1.74,6.1-5.68,9.18,0-11.72-15,8.16-16.73-1.87,0-.57.18-.88.55-.93,5.79.65,9.94-4.52,9.64-10.27l.16-26c-.11-3.59-.29-3.89-2.41-2.88l-.24-.93,14.71-9.1v5.83c5.16-3.38,9.54-5.42,14.54-8.87V85.52c.05.94,1.3-.32,1.87-.31l.54,1ZM384.38,42.08c-6.93,8-9.14-1.17-15.71,1.43,7.6-12,10.69.24,16.73-3.11A4.84,4.84,0,0,1,384.38,42.08Zm5.37.35c-.72.31-1.5.7-2.33,1.16V81c-5.55.73-11.3,9.78-17.12,9.33a3.36,3.36,0,0,0,.39,1.25c7-.27,11.81-9.43,19.06-9.41Zm3.89,3.42c-1.55.57-2.41,1-2.56,1.4V62.34h2.48V45.85Zm10.66-6.61a13.73,13.73,0,0,0-2.41,1.16c1.12,3.82-2.71,44.37,2.41,45.28Z"/><path class="cls-3" d="M426.7,42.08c-6.16,7.59-9.5-.49-15.09,1.43H411c7.67-10.78,10.11-1.37,16.72-3.11A4.65,4.65,0,0,1,426.7,42.08ZM446,42.7c-1.35,6-9.34,3.53-13.66,4v11c3.38,0,7.48,0,12.53.08-1.73,8.84-4.67,8.23-12.53,7.93-.24,4.28.12,11.23,0,15.8,5.89,4,8.4,1.88,14.32-3.27v2.57Q434.1,91.51,430.67,91.51c-5.48-2.61-10.39-8.08-10.19-14.54V51.45c0-1.69-.81-2.06-1.94-1.87-.07-.26-.1-.58-.16-.54V48.8c2.63-1.91,6.1-3.83,10.42-6.37.77,3.72-2.23,35.88,2.26,37.8.67-7.35-2.21-35.89,3-42.32h13.38C446.9,39.94,446.4,41.53,446,42.7Z"/><path class="cls-3" d="M196.48,172.26c-3.24,5.88-9.13,11.3-15.63,13.14.88-15.9-21,8.81-20.77-2.8,6.83.84,9.5-5.61,9.41-11.9-.46-.45,1.07-27.63-.85-26.45-.56.42-1.19.82-1.87,1.25l-.08-1.17c6-3.93,13.12-7.91,21.7-13,3.91,6.07,8.44,12,9.34,19.37v-.08C197.37,153.29,198.78,170.34,196.48,172.26Zm-16.56-34.07c-.53.46-1.76.47-2.26.93v35.32c-4.2,1.66-8.38,6.51-12.14,8-1.19.73-3.76.86-4.2,1.94,6.74.64,12-7.68,18.6-8.86Zm-1.48-2.69c-8.12,7.82-9.43-1.18-16.34,1.36,7.4-11.94,10.67.38,17.5-3.11A3.89,3.89,0,0,1,178.44,135.5Zm10.73,18.63c-.09-2.62-3-13.12-7.7-16.57v36.49a8.28,8.28,0,0,1,6.77,3.65C190.14,176.61,188.87,156.09,189.17,154.13Z"/><path class="cls-3" d="M209.55,139c-3.56-.37-5.07-3.88-9-2,6.17-11.24,10-.87,16.18-3.66l.39.47Q213.76,139,209.55,139Zm29,41.54c-2.42.92-6.69,6.55-8.71,2.57-3.52-2.2-1.53-26.66-6.54-22,.52.06-1.27,22.32,1.17,18.05l.23.78c-2.83,1.55-6.38,3.26-9.49,5.21-8.44-7.17-1.06-34.59-5-43l-1.16.55a3,3,0,0,0-.24-.94l9.18-5.91c5.79,5.18-1.41,37.23,4,42.86.46-.48,0-40,.16-40.6l10.65-6.54c6.36,10.7,3.27,19.24-9.64,27.31v.85c18.28-11.16,8.76,17.91,15.63,20A1.43,1.43,0,0,1,238.57,180.58ZM228.3,143a5.88,5.88,0,0,0-3.34-5L223.24,139l-.07,19C227.68,151.56,229,148.27,228.3,143Z"/><path class="cls-3" d="M248.29,139c-3.56-.37-5.07-3.88-9-2,6.17-11.24,10-.87,16.18-3.66l.39.47Q252.5,139,248.29,139Zm21.39,45.43c-1.41-1.73-2.58-3.64-4-5.83-.14-.2-9.83,5.82-10,5.68-10.33-8.36-2.87-32.52-6.45-42.17l-1.25.47-.08-.93,10.43-7c.75,3-2.15,41.4,2.41,42.17V137.64q0-1.08,9.41-6.53c8.05,8.87-.33,38.17,5.21,47.37l1.33-.7.23.7ZM264,137.56c-4.45-2.7-1.15,39.39-2.11,40.22.34,1.83,2.91-.38,3.31-.89a9.92,9.92,0,0,0,.2-2.61C264.61,173.16,267.46,136.24,264,137.56Z"/><path class="cls-3" d="M309.59,184.94c-7.46-2.11-2.52-39.14-3.81-44.42,0-3-3.22-2.23-5.14-1.17,0,8-.2,28.57,0,36.25,6.53,3.67-.22,8.4-5.6,9.65,0-11.72-15.05,8.16-16.72-1.87q0-.85.54-.93c5.91.75,9.91-4.84,9.73-10.35l.07-25.9c-.1-3.59-.28-3.89-2.41-2.88l-.23-.93,14.7-9.11v4.91c2.63-2.17,7.56-4.3,10.19-6.46,9.1,5.39-1.59,42.39,6.38,47.84-.39-.38-.78-.7-1.32-1.17l1.24,1.17Q313.4,182.3,309.59,184.94ZM294,135.42c-6.42,7.91-9.34-1.25-15.4,1.75l-.31-.31c8.09-11,10.55-.06,16.72-3.11A4.54,4.54,0,0,1,294,135.42Zm5.29,40c-7.08-.29-12.1,9.32-19,9.49a3.18,3.18,0,0,1-.39-1.25c6.32.56,10.91-8.59,17.19-9.25l-.07-37.5a25.38,25.38,0,0,1,2.33-1.17Z"/><path class="cls-3" d="M351.29,184.47c-7.7.71-3.57-31.34-9.73-26.21.37,7.58-.39,11.46.2,18.08,2.45,5.2,1.71,5.21-5.88,8.91-.23-6-4-3.48-7.7-1.52-2.69,1.72-11.26,4.73-8.4-1.28,5.93.74,9.8-4.73,9.57-10.27V146.12c-.08-3.36-.28-4-2.26-2.8l-.23-.93,14.7-9.11v20.85c6.46-1.79,7.05-14.1,3.5-17.34l8.72-5.53c5.22,11.34-2.3,17.72-11.6,24.66,13.37-10,11.42,8.57,13,16.61.7,2.4-.06,6.36,3.15,7Q356.19,181.13,351.29,184.47Zm-16.46-49c-6,7.43-9.46-.71-15.67,1.36,7.61-11.93,10.58.17,16.72-3.11A4.21,4.21,0,0,1,334.83,135.5Zm5.41.27a24,24,0,0,0-2.33,1.17v37.42c-4.64,0-11.54,10-17.12,9.33l.39,1.25c6.75.76,11.65-10.21,19.06-9.1Z"/><path class="cls-3" d="M375.17,135.42c-6.16,7.59-9.5-.48-15.09,1.44h-.63c7.68-10.78,10.11-1.37,16.73-3.11A4.68,4.68,0,0,1,375.17,135.42Zm19.25.63c-1.35,6-9.33,3.53-13.65,4v11c3.38,0,7.48,0,12.52.08-1.73,8.83-4.66,8.23-12.52,7.93-.24,4.28.11,11.23,0,15.79,5.88,4,8.39,1.88,14.31-3.26v2.57q-12.52,10.73-15.94,10.73c-5.49-2.61-10.4-8.08-10.19-14.55V144.8c0-1.69-.81-2.07-1.94-1.87-.07-.26-.09-.58-.16-.54v-.24c2.63-1.91,6.11-3.83,10.43-6.38.77,3.73-2.23,35.89,2.25,37.81.67-7.35-2.2-35.89,3-42.32h13.38Q395.09,134.29,394.42,136.05Z"/><path class="cls-3" d="M428.38,184.94c-7.46-2.11-2.52-39.14-3.82-44.42,0-3-3.21-2.23-5.13-1.17,0,8-.2,28.57,0,36.25,6.52,3.67-.22,8.4-5.6,9.65,0-11.72-15.05,8.16-16.73-1.87,0-.57.18-.88.55-.93,5.9.75,9.91-4.84,9.72-10.35l.08-25.9c-.11-3.59-.29-3.89-2.41-2.88l-.24-.93,14.71-9.11v4.91c2.63-2.17,7.56-4.3,10.19-6.46,9.1,5.39-1.6,42.39,6.38,47.84-.39-.38-.78-.7-1.33-1.17l1.25,1.17Q432.19,182.3,428.38,184.94Zm-15.56-49.52c-6.42,7.91-9.35-1.25-15.41,1.75l-.31-.31c8.09-11,10.56-.06,16.73-3.11A4.83,4.83,0,0,1,412.82,135.42Zm5.29,40c-7.08-.29-12.11,9.32-19,9.49a3,3,0,0,1-.39-1.25c6.32.56,10.9-8.59,17.19-9.25l-.08-37.5a25.47,25.47,0,0,1,2.34-1.17Z"/><path class="cls-3" d="M478.16,192.64c-4.52,5.11-10.82,7-12.52.78,11.1,6.28,12.39-7.7,11.59-15.17-4.1,1.54-7.39,4-11.75,6.69-10-5.59-8.89-21.85-8.71-32.44-.59-9.7,4.9-16.1,13.53-18.28-3.28,5-5.44,9.57-4.58,15.87.77,5-2,17.08,2.33,23.49.12.08-.08-30.2,0-31.19,1.2-3.58,3.19-7.83,4.82-11.52,1.74,5.47,7.53,6.62,11.51,1.71-.62,7.34-7.76,14.42-14.54,10a1.14,1.14,0,0,0-.55,1.09v31.66c.6,4.23,8.14,2.47,8.33-1.24.12-6.79,1.33-23.06-7.32-8.79a73.79,73.79,0,0,1,3.58-9.42H486.8V187.5Q482.68,188,478.16,192.64Z"/><path class="cls-3" d="M517.48,174.2c-3,4.93-8.87,8.12-13.65,11-17-6.35-12-28.2-12.6-41.62C490.9,137,498.15,133,503.37,131c.2,0,.31.08.31.24-6.73,6.31-3.42,29.81-4.13,38,0,.93.81,2.23,2.41,3.89.2-8.13,0-26.79,0-35.87q8.71-6.37,9.34-6.37c4.4,1,7.53,7,7.7,11.27C518.47,146.14,520.4,171.12,517.48,174.2Zm-7.58-25.43c.13-4-.8-13.37-4.44-12.22-1.45,0-2.17.88-2.17,2.65v35.24c4.37,3.82,6.41,7.58,6.69,2.18Z"/><path class="cls-3" d="M549.53,174.2c-3,4.93-8.87,8.12-13.65,11-17-6.35-12-28.2-12.6-41.62C523,137,530.2,133,535.41,131c.21,0,.32.08.32.24-6.73,6.31-3.42,29.81-4.13,38,0,.93.81,2.23,2.41,3.89.2-8.13,0-26.79,0-35.87q8.72-6.37,9.34-6.37c4.4,1,7.53,7,7.7,11.28C550.52,146.14,552.45,171.12,549.53,174.2ZM542,148.77c.13-4-.8-13.37-4.44-12.22-1.45,0-2.17.88-2.17,2.65v35.24c4.37,3.82,6.41,7.58,6.69,2.18Z"/><path class="cls-3" d="M582,173c-8.55,22.16-44.27,7.86-15.36-4.75-2.18,9.86,8.91,14.47,9.49,5.68-.7-7.41-10.43-9.64-15.48-13.77-13.8-13.21-.13-23.22,12.21-29.71,1.75,3.9,4,5.51,8.09,1.55.29,5.39-8.36,12.06-12.37,6.69C555,151.41,592.48,154.13,582,173Zm-2.53-13.73c-5.91-5.82-22.75-12.06-12.06-21.67v.08a.56.56,0,0,0-.54-.62c-14.75,11,6.79,19.57,14.7,25.75A8.11,8.11,0,0,0,579.44,159.23Zm-14.23,12.41v-.55c-3.58,5.59,1.22,12.09,6.76,8.71C567.46,179.34,565.21,176.61,565.21,171.64Z"/><path class="cls-3" d="M603.09,135.42c-6.16,7.59-9.5-.48-15.09,1.44h-.62c7.67-10.78,10.1-1.37,16.72-3.11A4.54,4.54,0,0,1,603.09,135.42Zm19.25.63c-1.35,6-9.33,3.53-13.65,4v11c3.38,0,7.48,0,12.52.08-1.73,8.83-4.66,8.23-12.52,7.93-.24,4.28.12,11.23,0,15.8,5.88,4,8.4,1.88,14.31-3.27v2.57q-12.53,10.73-15.94,10.73c-5.49-2.61-10.4-8.08-10.19-14.55V144.8c0-1.69-.82-2.07-2-1.87-.07-.26-.09-.58-.15-.54v-.24c2.62-1.91,6.1-3.83,10.42-6.38.77,3.73-2.23,35.89,2.26,37.81.66-7.35-2.21-35.89,3-42.32h13.38C623.29,133.29,622.78,134.88,622.34,136.05Z"/></g></g></svg>