<?xml version="1.0" encoding="utf-8"?>
<!-- Generator: Adobe Illustrator 25.2.1, SVG Export Plug-In . SVG Version: 6.00 Build 0)  -->
<svg version="1.1" id="Layer_1" xmlns="http://www.w3.org/2000/svg" xmlns:xlink="http://www.w3.org/1999/xlink" x="0px" y="0px"
	 viewBox="0 0 397 231" style="enable-background:new 0 0 397 231;" xml:space="preserve">
<style type="text/css">
	.st0{stroke:#000000;stroke-miterlimit:10;}
	.st1{fill:#FFFFFF;stroke:#FFFFFF;stroke-miterlimit:10;}
	.st2{fill:#CAB488;}
</style>
<g>
	<path class="st0" d="M83.79,59.57V41.82c0,0-3.23-4.84-4.84-8.07c-1.61-3.23-3.23-4.84-4.84-11.29c-1.61-6.45,0-11.29,3.23-14.52
		s3.23-3.23,6.45-3.23s5.54-1.61,12.45,0s14.98,8.07,21.43,8.07s8.07,0,8.07,1.61s0,3.23-4.84,3.23s-6.45,0-9.68,1.61
		c-3.23,1.61-3.23,0,0,3.23s8.07,6.45,8.07,8.07c0,1.61,0,1.61-6.45,0c-6.45-1.61-6.45-1.61-9.68-3.23s-6.45-3.23-8.07,1.61
		c-1.61,4.84,0,6.45,0,12.91s1.61,29.04,3.23,32.27c1.61,3.23,9.68,16.13,14.52,19.36c4.84,3.23,12.91,11.29,22.59,17.75
		c9.68,6.45,11.29,4.84,16.13,8.07c4.84,3.23,6.45,9.68,4.84,11.29s-9.68,3.23-12.91,1.61c-3.23-1.61-9.68-8.07-9.68-8.07
		s-3.23-3.23-3.23-1.61c0,1.61,1.61,9.68,3.23,14.52s4.84,12.91,1.61,24.2c-3.23,11.29-8.07,27.43-8.07,29.04
		c0,1.61-4.84,17.75-4.84,22.59s-3.23,11.29-4.84,11.29s-19.36,1.61-19.36,1.61s-1.61,1.61-3.23-3.23
		c-1.61-4.84,1.61-6.45,3.23-8.07c1.61-1.61,9.68-1.61,11.29-4.84c1.61-3.23,1.61-6.45,1.61-8.07s0-6.45-4.84-9.68
		c-4.84-3.23-40.33-14.52-41.95-16.13c-1.61-1.61-4.84-3.23-8.07-3.23s-6.45,3.23-8.07,3.23s-8.07,0-12.91,1.61
		s-8.07,4.84-11.29,1.61s-1.61-4.84-4.84-6.45s-6.45,0-4.84-3.23c1.61-3.23,8.07-6.45,9.68-6.45c1.61,0,9.68-3.23,11.29-3.23
		s6.45,0,8.07-3.23c1.61-3.23,0-8.07,0-16.13c0-8.07,4.84-16.13,6.45-17.75c1.61-1.61,4.23-6.48,2.92-8.08
		c-1.31-1.6-2.92-6.44-9.38-6.44s-8.07-1.61-17.75-1.61s-22.59,0-20.97-4.84c1.61-4.84,8.07-8.07,9.68-9.68
		c1.61-1.61,11.29-4.84,14.52-4.84s17.08,1.61,19.36,1.61c3.23,0,4.84,0,9.68,0c3.61,0,8.07,1.61,14.52-3.23s9.68-9.68,9.68-11.29
		C82.18,72.47,83.79,59.57,83.79,59.57L83.79,59.57z"/>
	<path class="st1" d="M80.57,11.16c0,0-3.23,1.61-3.23,4.84s1.61,6.45,3.23,9.68c1.61,3.23,4.84,1.61,4.84,1.61
		c3.23-1.61,4.84-1.61,8.07-3.23s11.29-4.84,11.29-6.45c0-1.61-1.61-3.23-3.23-4.84c-1.61-1.61-4.84-4.84-6.45-4.84
		c-1.61,0-4.84,0-4.84,0s-1.61,1.61-1.61,3.23s3.23,3.23,3.23,3.23s1.61,3.23,0,4.84c-1.61,1.61-3.23,1.61-4.84,1.61
		c-1.61,0-3.23-1.61-3.23-3.23c0-1.61,1.61-3.23,1.61-4.84S80.57,11.16,80.57,11.16z"/>
	<path class="st1" d="M14.42,95.94c0,0,3.23-4.21,8.07-4.21s12.91-1.4,17.75,0c4.84,1.4,16.13,2.8,20.97,5.61s3.23,4.21,3.23,5.61
		s0,4.21-3.23,4.21s-4.84,0-9.68-1.4s-6.45-4.21-11.29-4.21s-12.91,1.4-17.75,1.4s-6.61-0.84-8.07-1.42
		C12.79,100.89,12.81,97.35,14.42,95.94L14.42,95.94z"/>
	<path class="st1" d="M98.61,91.12c0,0-6.75,0.72-11.59,3.94c-4.84,3.23-11.29,14.52-16.13,20.97
		c-4.84,6.45-11.29,17.75-14.52,20.97c-3.23,3.23-9.68,11.29-9.68,16.13c0,4.84,4.84,11.29,9.68,14.52
		c4.84,3.23,9.97,5.99,16.28,7.84c6.31,1.84,24.05,1.84,28.89,1.84c4.84,0,9.68-1.61,17.75-6.45s8.07-3.23,11.29-9.68
		c3.23-6.45,4.84-12.91,3.23-19.36s-12.91-27.43-14.52-30.65c-1.61-3.23-8.07-12.91-11.29-16.13S98.61,91.12,98.61,91.12z"/>
</g>
<g>
	<path class="st2" d="M196.25,98.27c-0.14,3.05-1.38,7.26-5.22,6.69l4.26,27.44c0.15-0.02,0.51-0.29,1.07-0.8l0.39,0.34
		c-0.85,0.69-3.99,3.6-4.64,4.38c-3.3,1.98-5.93-4.57-6.36-7.27c0,0-3.37-21.42-3.37-21.42c-1.32-3.97-6.51-1.85-7.78,1.28
		l-0.3-0.12c0.58-2.57-0.29-7.6,2.97-8.68c4.78-2.05,14.97-0.22,19.14-3.75C196.35,96.75,196.3,97.39,196.25,98.27z M190.02,105.06
		c-0.59,0.03-1.16,0.07-1.69,0.15l4,25.42c0.02,1.24,1,1.16,2.01,1.56L190.02,105.06z"/>
	<path class="st2" d="M223.14,132.24c-4.46-2.45-4.46-12.94-5.43-17.16l-1.78,0.28l1.7,10.79c2.84,2.75,1.93,4.17-3.03,7.2
		c-1.33-8.38-9.85,7.53-12.17,0.54c-0.06-0.41,0.03-0.65,0.28-0.73c4.22-0.19,6.6-4.35,5.74-8.43c0,0-2.81-18.6-2.81-18.6
		c-0.48-2.56-0.64-2.75-2.05-1.79l-0.27-0.64l9.49-8.16l0.66,4.17c3.31-3,6.22-4.95,9.41-7.98l5.47,34.77
		c0.14,0.66,0.89-0.38,1.3-0.43l0.5,0.66L223.14,132.24z M208.26,97.83c-4.06,6.49-6.67,0.2-11.08,2.8
		c4.09-9.41,7.67-1.04,11.61-4.11C208.75,96.91,208.57,97.35,208.26,97.83z M212.14,97.48c-0.48,0.3-1,0.67-1.54,1.1l4.21,26.76
		c-3.89,1.14-6.98,8.27-11.19,8.6c0.14,0.43,0.28,0.72,0.42,0.85c4.97-0.98,7.38-8.07,12.57-8.87L212.14,97.48z M215.31,99.49
		c-1.05,0.58-1.61,1.01-1.68,1.29l1.7,10.79l1.78-0.28l-1.85-11.79L215.31,99.49z M222.19,93.56c-0.11,0.02-0.64,0.39-1.59,1.11
		c1.23,2.6,3.05,32.04,6.81,32.11L222.19,93.56z"/>
	<path class="st2" d="M238.53,93.08c-3.55,6.12-6.85,0.72-10.63,2.73l-0.45,0.07c4.27-8.58,7.07-2.12,11.61-4.11
		C239.01,92.16,238.83,92.59,238.53,93.08z M252.37,91.36c-0.29,4.42-6.28,3.58-9.31,4.4l1.23,7.84c2.42-0.38,5.35-0.84,8.97-1.35
		c-0.24,6.51-2.41,6.41-8.06,7.08c0.31,3.08,1.34,8.02,1.78,11.29c4.66,2.2,6.22,0.4,9.87-3.95l0.29,1.84
		c-5.17,6.06-8.57,9.21-10.2,9.47c-4.22-1.25-8.34-4.61-8.92-9.26c0,0-2.87-18.25-2.87-18.25c-0.16-1.21-0.81-1.38-1.6-1.12
		c-0.08-0.18-0.13-0.4-0.17-0.37l-0.03-0.17c1.66-1.66,3.93-3.43,6.74-5.73c0.97,2.58,2.44,25.91,5.86,26.78
		c-0.35-5.33-5.61-25.42-2.59-30.61l9.57-1.5C252.73,89.28,252.55,90.47,252.37,91.36z"/>
	<path class="st2" d="M88.52,212.06c-1.66,4.57-5.26,9.11-9.7,11.16c-1.16-11.47-14,8.65-15.17,0.33c4.98-0.17,6.16-5.08,5.39-9.57
		c-0.38-0.27-2.34-19.88-3.58-18.82c-0.35,0.36-0.76,0.72-1.2,1.1l-0.19-0.83c3.85-3.49,8.5-7.13,14.06-11.73
		c3.47,3.9,7.39,7.66,8.85,12.8l-0.01-0.06C87.02,198.39,89.94,210.43,88.52,212.06z M72.84,189.55c-0.33,0.39-1.2,0.54-1.51,0.92
		c0,0,3.97,25.26,3.97,25.26c-2.81,1.66-5.26,5.6-7.78,7.09c-0.77,0.65-2.6,1.04-2.79,1.86c4.89-0.3,7.69-6.84,12.3-8.43
		L72.84,189.55z M71.48,187.8c-4.93,6.5-6.88,0.21-11.53,2.81c3.95-9.37,7.67-0.93,12.17-4.19C72.07,186.84,71.86,187.3,71.48,187.8
		z M81.25,199.92c-0.36-1.86-3.61-9.05-7.37-10.98l4.1,26.09c2.25-0.26,3.72,0.43,5.25,1.85C84.47,215.89,81.26,201.35,81.25,199.92
		z"/>
	<path class="st2" d="M94.13,186.83c-2.59,0.13-4.07-2.21-6.68-0.43c3.15-8.73,7.07-1.75,11.16-4.43l0.33,0.29
		C97.74,184.99,96.14,186.52,94.13,186.83z M119.55,213.28c-1.63,0.93-4.05,5.44-5.94,2.82c-2.76-1.18-4.09-18.9-7.15-15.01
		c0.38-0.02,1.6,16.11,2.86,12.78l0.25,0.53c-1.85,1.43-4.2,3.05-6.2,4.79c-6.84-4.18-4.65-24.62-8.4-30.2l-0.77,0.52
		c-0.02-0.15-0.11-0.36-0.27-0.64l5.9-5.26c4.72,3.05,3.18,26.78,7.66,30.21c0.27-0.4-4.5-28.64-4.45-29.06l6.89-5.87
		c5.75,6.93,4.5,13.39-3.83,20.61l0.1,0.61c11.82-10.04,8.28,11.82,13.43,12.54C119.67,212.9,119.64,213.11,119.55,213.28z
		 M107.98,187.54c-0.41-1.68-1.37-2.63-2.96-3.21l-1.1,0.97l2.08,13.58C108.5,193.75,109.06,191.25,107.98,187.54z"/>
	<path class="st2" d="M121.84,182.48c-2.59,0.13-4.07-2.21-6.68-0.43c3.15-8.73,7.07-1.75,11.16-4.43l0.33,0.29
		C125.44,180.64,123.84,182.16,121.84,182.48z M142.24,212.56c-1.21-1.08-2.26-2.31-3.55-3.72c-0.12-0.12-6.37,5.27-6.48,5.18
		c-8.33-4.82-5.71-22.93-9.36-29.43l-0.84,0.47l-0.16-0.66l6.67-6.18c0.88,2.07,3.12,29.84,6.46,29.88l-4.41-28.04
		c-0.08-0.52,1.92-2.43,6-5.73c6.75,5.44,4.05,27.34,9.05,33.29l0.87-0.65l0.25,0.47L142.24,212.56z M132.91,179.66
		c-3.48-1.43,3.61,28.3,3.02,29c0.44,1.27,2.03-0.6,2.26-1.01c0.05-0.26,0-0.88-0.15-1.89
		C137.34,205.05,135.23,178.32,132.91,179.66z"/>
	<path class="st2" d="M170.83,208.41c-5.57-0.67-6.2-27.71-7.72-31.34c-0.32-2.14-2.55-1.24-3.8-0.26
		c0.91,5.7,3.07,20.45,4.07,25.92c5.08,1.89,0.79,6.03-2.92,7.53c-1.33-8.38-9.85,7.53-12.17,0.54c-0.06-0.41,0.03-0.65,0.28-0.73
		c4.31-0.13,6.54-4.57,5.79-8.49c0,0-2.86-18.53-2.86-18.53c-0.48-2.56-0.64-2.75-2.05-1.79l-0.27-0.64l9.49-8.16l0.55,3.5
		c1.64-1.84,4.92-3.92,6.56-5.76c7.11,2.83,3.62,30.49,9.94,33.5c-0.32-0.23-0.64-0.41-1.08-0.69l1.02,0.7
		C174.07,205.3,172.45,206.87,170.83,208.41z M154.14,174.75c-3.7,6.37-6.83,0.15-10.82,2.98l-0.26-0.19
		c4.55-8.79,7.54-1.23,11.61-4.11C154.62,173.83,154.45,174.27,154.14,174.75z M162.42,202.78c-5.09,0.59-7.61,8.03-12.51,8.92
		c-0.13-0.13-0.27-0.41-0.42-0.85c4.58-0.31,6.84-7.37,11.25-8.55l-4.27-26.81c0.54-0.43,1.05-0.79,1.54-1.1L162.42,202.78z"/>
	<path class="st2" d="M200.6,203.39c-5.42,1.37-6.07-22.01-9.9-17.66c1.11,5.39,1.01,8.24,2.17,12.91c2.34,3.44,1.81,3.53-3.2,7.03
		c-0.85-4.28-3.23-2.04-5.68-0.22c-1.73,1.53-7.52,4.65-6.15,0.03c4.33-0.13,6.48-4.49,5.69-8.42c0,0-2.93-18.64-2.93-18.64
		c-0.44-2.4-0.64-2.82-1.93-1.75l-0.27-0.64l9.49-8.16l2.34,14.91c4.42-2.01,3.45-10.88,0.55-12.8l5.61-4.93
		c5.01,7.52,0.35,12.93-5.52,18.94c8.44-8.64,9.13,4.84,11.19,10.41c0.76,1.64,0.67,4.56,3.04,4.62
		C204.19,199.98,202.69,201.43,200.6,203.39z M183.33,170.22c-3.48,5.99-6.85,0.55-11.06,2.74c4.1-9.39,7.59-1.07,11.61-4.11
		C183.84,169.28,183.65,169.73,183.33,170.22z M187.23,169.81c-0.42,0.26-0.93,0.62-1.54,1.1l4.21,26.76
		c-3.32,0.52-7.12,8.45-11.19,8.6l0.42,0.85c4.91-0.21,7.18-8.61,12.61-8.65L187.23,169.81z"/>
	<path class="st2" d="M212.17,165.63c-3.55,6.12-6.85,0.72-10.63,2.73l-0.45,0.07c4.27-8.58,7.07-2.12,11.61-4.11
		C212.65,164.71,212.47,165.15,212.17,165.63z M226.01,163.91c-0.29,4.42-6.28,3.58-9.31,4.4l1.23,7.84
		c2.42-0.38,5.35-0.84,8.97-1.35c-0.24,6.51-2.41,6.41-8.06,7.08c0.31,3.08,1.34,8.02,1.78,11.29c4.66,2.2,6.22,0.4,9.87-3.95
		l0.29,1.84c-5.17,6.06-8.57,9.21-10.2,9.47c-4.22-1.25-8.34-4.61-8.92-9.26c0,0-2.87-18.25-2.87-18.25
		c-0.16-1.21-0.81-1.38-1.6-1.12c-0.08-0.18-0.13-0.4-0.17-0.37l-0.03-0.17c1.66-1.66,3.93-3.43,6.74-5.73
		c0.97,2.58,2.44,25.91,5.86,26.78c-0.35-5.33-5.61-25.42-2.59-30.61l9.57-1.5C226.37,161.83,226.19,163.03,226.01,163.91z"/>
	<path class="st2" d="M255.78,195.06c-5.57-0.67-6.2-27.71-7.72-31.34c-0.32-2.14-2.55-1.24-3.8-0.26
		c0.91,5.7,3.07,20.45,4.07,25.92c5.08,1.89,0.79,6.03-2.92,7.53c-1.33-8.38-9.85,7.53-12.17,0.54c-0.06-0.41,0.03-0.65,0.28-0.73
		c4.31-0.13,6.54-4.57,5.79-8.49c0,0-2.86-18.53-2.86-18.53c-0.48-2.56-0.64-2.75-2.05-1.79l-0.27-0.64l9.49-8.16l0.55,3.5
		c1.64-1.84,4.92-3.92,6.56-5.76c7.11,2.83,3.62,30.49,9.94,33.5c-0.32-0.23-0.64-0.41-1.08-0.69l1.02,0.7
		C259.02,191.95,257.4,193.51,255.78,195.06z M239.09,161.4c-3.7,6.37-6.83,0.15-10.82,2.98l-0.26-0.19
		c4.55-8.79,7.54-1.23,11.61-4.11C239.57,160.48,239.4,160.91,239.09,161.4z M247.37,189.43c-5.09,0.59-7.61,8.03-12.51,8.92
		c-0.13-0.13-0.27-0.41-0.42-0.85c4.58-0.31,6.84-7.37,11.25-8.55l-4.27-26.81c0.54-0.43,1.05-0.79,1.54-1.1L247.37,189.43z"/>
	<path class="st2" d="M292.25,194.97c-2.66,4.16-6.94,6.25-8.87,1.96c8.64,3.25,8-6.9,6.58-12.15c-2.76,1.57-4.83,3.72-7.65,6.11
		c-7.77-2.87-8.82-14.62-9.88-22.22c-1.51-6.87,1.7-12.07,7.62-14.59c-1.79,3.94-2.82,7.46-1.5,11.86
		c1.12,3.51,0.51,12.44,4.31,16.54c0.1,0.04-3.45-21.59-3.51-22.31c0.46-2.69,1.4-5.95,2.16-8.77c1.86,3.71,6.13,3.88,8.43-0.07
		c0.38,5.32-3.93,11.18-9.28,8.76c-0.24,0.19-0.32,0.47-0.27,0.84l3.56,22.64c0.9,2.96,6.09,0.85,5.81-1.83
		c-0.67-4.87-1.64-16.64-6.22-5.46c0.1-1.27,0.6-3.65,1.5-7.13l9.24-1.45l3.56,22.64C295.92,190.86,294.06,192.41,292.25,194.97z"/>
	<path class="st2" d="M318.3,177.36c-1.61,3.87-5.43,6.8-8.53,9.38c-12.89-2.63-11.74-18.82-13.69-28.35
		c-0.97-4.64,3.77-8.32,7.26-10.38c0.15-0.02,0.23,0.02,0.25,0.13c-4.1,5.27,0.91,21.7,1.32,27.61c0.11,0.67,0.83,1.5,2.16,2.51
		c-0.77-5.83-2.99-19.16-4.03-25.65c3.67-3.69,5.66-5.56,5.96-5.61c3.25,0.19,6.17,4.13,6.78,7.2
		C315.86,157.19,320.04,174.83,318.3,177.36z M310.02,160.03c-0.36-2.89-2.07-9.47-4.54-8.24c-1.04,0.16-1.46,0.88-1.26,2.14
		l3.96,25.2c3.56,2.24,5.44,4.71,5.03,0.81C313.21,179.93,310.02,160.03,310.02,160.03z"/>
	<path class="st2" d="M341.22,173.76c-1.61,3.87-5.43,6.8-8.53,9.38c-12.89-2.63-11.74-18.82-13.69-28.35
		c-0.97-4.64,3.77-8.32,7.26-10.38c0.15-0.02,0.23,0.02,0.25,0.13c-4.1,5.27,0.91,21.7,1.32,27.61c0.11,0.67,0.83,1.5,2.16,2.51
		c-0.77-5.83-2.99-19.16-4.03-25.65c3.67-3.69,5.66-5.56,5.96-5.61c3.25,0.19,6.17,4.13,6.78,7.2
		C338.78,153.58,342.96,171.23,341.22,173.76z M332.94,156.42c-0.36-2.89-2.07-9.47-4.54-8.24c-1.04,0.16-1.46,0.88-1.26,2.14
		l3.96,25.2c3.56,2.24,5.44,4.71,5.03,0.81C336.13,176.33,332.94,156.42,332.94,156.42z"/>
	<path class="st2" d="M364.28,169.22c-3.62,16.81-30.78,10.6-11.52-1.67c-0.45,7.29,8,9.35,7.43,2.99
		c-1.33-5.22-8.54-5.72-12.62-8.11c-11.35-7.9-2.7-16.59,5.39-22.62c1.69,2.59,3.47,3.49,5.96,0.2c0.82,3.82-4.62,9.56-8.09,6.18
		C342.55,156.85,369.68,154.58,364.28,169.22z M360.93,159.69c-4.88-3.5-17.63-6.07-11.06-14.14l0.01,0.06
		c-0.04-0.26-0.19-0.39-0.46-0.38c-9.31,9.55,7.05,13.23,13.41,16.76C362.42,161.1,361.79,160.33,360.93,159.69z M352.14,170.16
		l-0.06-0.39c-1.93,4.4,2.24,8.5,5.82,5.47C354.62,175.42,352.7,173.72,352.14,170.16z"/>
	<path class="st2" d="M375.17,140.01c-3.55,6.12-6.85,0.72-10.63,2.73l-0.45,0.07c4.27-8.58,7.07-2.12,11.61-4.11
		C375.65,139.09,375.47,139.52,375.17,140.01z M389.01,138.29c-0.29,4.42-6.28,3.58-9.31,4.4l1.23,7.84
		c2.42-0.38,5.35-0.84,8.97-1.35c-0.24,6.51-2.41,6.41-8.06,7.08c0.31,3.08,1.34,8.02,1.78,11.29c4.66,2.2,6.22,0.4,9.87-3.95
		l0.29,1.84c-5.17,6.06-8.57,9.21-10.2,9.47c-4.22-1.25-8.34-4.61-8.92-9.26c0,0-2.87-18.25-2.87-18.25
		c-0.16-1.21-0.81-1.38-1.6-1.12c-0.08-0.18-0.13-0.4-0.17-0.37l-0.03-0.17c1.66-1.66,3.93-3.43,6.74-5.73
		c0.97,2.58,2.44,25.91,5.86,26.78c-0.35-5.33-5.61-25.42-2.59-30.61l9.57-1.5C389.37,136.21,389.19,137.4,389.01,138.29z"/>
</g>
</svg>
